<svg xmlns="http://www.w3.org/2000/svg" xmlns:xlink="http://www.w3.org/1999/xlink" version="1.1" x="0px" y="0px" viewBox="0 0 29.947 36.379999999999995" style="enable-background:new 0 0 29.947 29.104;" xml:space="preserve"><g><g><g><path d="M12.231,17.596c-0.033,0.416-0.066,0.874-0.091,1.293c-0.024,0.465-0.137,1.501-0.321,3.009     c-0.3,0.136-0.583,0.312-0.841,0.522c-1.606,1.319-1.84,3.698-0.52,5.307c0.717,0.875,1.781,1.377,2.914,1.377     c0.869,0,1.719-0.304,2.392-0.857c1.605-1.318,1.84-3.699,0.521-5.308c-0.559-0.679-1.337-1.139-2.193-1.305l1.146-4.048     c-1.398,0.021-2.451,0.028-2.76,0.028C12.451,17.615,12.356,17.607,12.231,17.596z M14.563,24.357     c0.538,0.656,0.441,1.627-0.212,2.167c-0.636,0.521-1.65,0.418-2.169-0.212c-0.538-0.657-0.442-1.63,0.214-2.169     c0.272-0.227,0.62-0.35,0.975-0.35C13.832,23.793,14.269,23.998,14.563,24.357z"/><path d="M20.208,0l-0.631,0.027c-0.119,0.005-2.898,0.165-4.126,3.474c-0.675,1.819-1.614,5.839-2.32,9.079l3.605-0.288L20.208,0     z"/></g><g><path d="M7.537,13.948c0.002-0.871-0.297-1.723-0.855-2.402c-0.72-0.876-1.781-1.378-2.915-1.378     c-0.87,0-1.719,0.305-2.393,0.856c-1.604,1.319-1.839,3.699-0.52,5.306c0.719,0.876,1.782,1.38,2.916,1.38     c0.869,0,1.719-0.307,2.392-0.858c0.257-0.21,0.482-0.452,0.674-0.721c1.518,0.108,2.556,0.199,3.017,0.266     c1.12,0.159,2.576,0.303,2.623,0.306c0.4-0.002,9.894-0.045,13.113-0.563c3.482-0.562,4.182-3.258,4.209-3.373l0.148-0.616     L7.537,13.948z M4.744,15.127c-0.633,0.521-1.646,0.42-2.166-0.213c-0.261-0.317-0.383-0.719-0.343-1.128     c0.04-0.408,0.237-0.777,0.554-1.038c0.276-0.227,0.622-0.351,0.979-0.351c0.463,0,0.896,0.205,1.19,0.563     C5.496,13.617,5.401,14.589,4.744,15.127z M14.342,15.88c-0.51,0-0.922-0.412-0.922-0.923c0-0.51,0.412-0.923,0.922-0.923     c0.511,0,0.924,0.413,0.924,0.923C15.266,15.468,14.853,15.88,14.342,15.88z"/></g></g></g><text x="0" y="44.104" fill="#000000" font-size="5px" font-weight="bold" font-family="'Helvetica Neue', Helvetica, Arial-Unicode, Arial, Sans-serif">Created by Baboon designs</text><text x="0" y="49.104" fill="#000000" font-size="5px" font-weight="bold" font-family="'Helvetica Neue', Helvetica, Arial-Unicode, Arial, Sans-serif">from the Noun Project</text></svg>